<?xml version="1.0" encoding="UTF-8" standalone="no"?>
<!-- Created with Inkscape (http://www.inkscape.org/) -->

<svg
   xmlns:dc="http://purl.org/dc/elements/1.1/"
   xmlns:cc="http://creativecommons.org/ns#"
   xmlns:rdf="http://www.w3.org/1999/02/22-rdf-syntax-ns#"
   xmlns:svg="http://www.w3.org/2000/svg"
   xmlns="http://www.w3.org/2000/svg"
   xmlns:sodipodi="http://sodipodi.sourceforge.net/DTD/sodipodi-0.dtd"
   xmlns:inkscape="http://www.inkscape.org/namespaces/inkscape"
   width="210mm"
   height="80mm"
   viewBox="0 0 210 80"
   version="1.1"
   id="SVGRoot"
   inkscape:version="0.91 r13725"
   sodipodi:docname="logo.svg">
  <sodipodi:namedview
     id="base"
     pagecolor="#ffffff"
     bordercolor="#666666"
     borderopacity="1.0"
     inkscape:pageopacity="1"
     inkscape:pageshadow="2"
     inkscape:zoom="0.49497475"
     inkscape:cx="268.30611"
     inkscape:cy="184.22515"
     inkscape:document-units="mm"
     inkscape:current-layer="layer1"
     showgrid="false"
     inkscape:window-width="1366"
     inkscape:window-height="718"
     inkscape:window-x="0"
     inkscape:window-y="26"
     inkscape:window-maximized="1"
     showguides="false" />
  <defs
     id="defs3680" />
  <metadata
     id="metadata3683">
    <rdf:RDF>
      <cc:Work
         rdf:about="">
        <dc:format>image/svg+xml</dc:format>
        <dc:type
           rdf:resource="http://purl.org/dc/dcmitype/StillImage" />
        <dc:title></dc:title>
      </cc:Work>
    </rdf:RDF>
  </metadata>
  <g
     id="layer1"
     inkscape:groupmode="layer"
     inkscape:label="Layer 1"
     transform="translate(0,-68.000003)">
    <!--rect
       id="rect3696"
       width="150"
       height="1"
       x="30"
       y="53.127975"
       style="stroke-width:0.26458332" /-->
    <g
       id="g4506"
       transform="translate(-6.663689,3.0238099)">
      <!--rect
         id="rect3698"
         width="150"
         height="1"
         x="36.663689"
         y="87.145828"
         style="stroke-width:0.26458332" /-->
    </g>
    <g
       id="g4160"
       transform="matrix(1.3546053,0,0,1.3546053,-37.233551,7.771214)">
      <path
         d="m 49.841915,71.590822 0,8.051751 -6.020841,0 0,-7.260954 0,-0.826742 q 0,-1.707403 -0.431343,-2.480227 -0.413372,-0.754852 -1.132278,-1.15025 -0.736879,-0.413371 -1.599566,-0.413371 -1.34795,0 -2.3005,0.952551 -0.952551,0.988496 -0.952551,2.354418 0,1.365922 0.970523,2.282527 0.952551,0.934578 2.372391,0.934578 0.844715,0 1.976992,-0.413371 l 0,6.164622 q -1.042414,0.233644 -1.923074,0.233644 -2.534145,0 -4.708836,-1.22214 -2.192665,-1.222141 -3.414805,-3.324942 -1.240114,-2.102801 -1.240114,-4.636946 0,-2.516172 1.240114,-4.672891 1.22214,-2.138746 3.324941,-3.378859 2.084829,-1.240113 4.601001,-1.240113 2.534144,0 4.654918,1.204168 2.102801,1.204168 3.360887,3.324941 1.222141,2.120774 1.222141,4.583028 z"
         style="font-style:normal;font-variant:normal;font-weight:normal;font-stretch:normal;font-size:medium;line-height:23.00500107px;font-family:'Pump Demi Bold LET';-inkscape-font-specification:'Pump Demi Bold LET';letter-spacing:0px;word-spacing:0px;fill:#008000;fill-opacity:1;stroke:none;stroke-width:0.92019999"
         id="path4497"
         inkscape:connector-curvature="0" />
      <path
         d="m 52.286195,62.658411 0,-0.826742 6.02084,0 -0.01797,0.61107 0,1.635512 q 0,1.815239 0.107836,3.271024 0.107836,1.509703 0.34148,2.57009 0.251617,1.132277 0.593098,1.976992 0.377426,0.916606 0.952551,1.851184 1.114305,-1.707403 1.545648,-3.864121 0.431344,-2.138747 0.431344,-5.823141 l 0,-1.61754 -0.01797,-0.61107 6.020841,0 0,0.826742 q 0,2.606036 -0.143782,4.87059 -0.125808,2.030911 -0.449316,3.630477 -0.341481,1.581594 -0.934578,3.055352 -0.575125,1.41984 -1.383895,2.713871 -0.808769,1.276059 -2.120773,2.713872 l -5.91301,0 Q 55.790863,77.917197 54.838313,76.353576 53.903734,74.789955 53.328609,72.848908 52.771457,70.907861 52.51984,68.481552 52.286195,66.145107 52.286195,62.658411 Z"
         style="font-style:normal;font-variant:normal;font-weight:normal;font-stretch:normal;font-size:medium;line-height:23.00500107px;font-family:'Pump Demi Bold LET';-inkscape-font-specification:'Pump Demi Bold LET';letter-spacing:0px;word-spacing:0px;fill:#008000;fill-opacity:1;stroke:none;stroke-width:0.92019999"
         id="path4499"
         inkscape:connector-curvature="0" />
      <path
         d="m 76.315638,70.782052 q 0,0.898633 0.449317,1.61754 0.431343,0.754851 1.186195,1.186195 0.754852,0.431344 1.617539,0.431344 0.862688,0 1.617539,-0.431344 0.736879,-0.431344 1.204168,-1.186195 0.431344,-0.736879 0.431344,-1.61754 0,-0.88066 -0.431344,-1.635511 -0.449316,-0.736879 -1.186195,-1.186196 -0.754852,-0.431344 -1.635512,-0.431344 -0.88066,0 -1.617539,0.431344 -0.754852,0.449317 -1.186195,1.186196 -0.449317,0.736879 -0.449317,1.635511 z m -5.984895,0 q 0,-1.905101 0.718907,-3.576558 0.736879,-1.707403 1.994965,-2.965489 1.276058,-1.276059 2.965488,-1.994965 1.671457,-0.700933 3.558586,-0.700933 1.941047,0 3.612504,0.718906 1.707403,0.718906 2.929544,1.959019 1.258086,1.258086 1.976992,2.929544 0.718906,1.671457 0.718906,3.630476 0,1.923075 -0.718906,3.576559 -0.736879,1.68943 -1.976992,2.929543 -1.240114,1.240114 -2.965489,1.976993 -1.725375,0.736879 -3.576559,0.736879 -2.534144,0 -4.636945,-1.240114 -2.120774,-1.240113 -3.360887,-3.360887 -1.240114,-2.102801 -1.240114,-4.618973 z"
         style="font-style:normal;font-variant:normal;font-weight:normal;font-stretch:normal;font-size:medium;line-height:23.00500107px;font-family:'Pump Demi Bold LET';-inkscape-font-specification:'Pump Demi Bold LET';letter-spacing:0px;word-spacing:0px;fill:#008000;fill-opacity:1;stroke:none;stroke-width:0.92019999"
         id="path4501"
         inkscape:connector-curvature="0" />
      <path
         d="m 90.406202,80.002026 0,-6.146649 q 1.563621,0 2.192664,-0.61107 0.629043,-0.611071 0.736879,-2.120774 l 0.125809,-1.923074 q 0.161754,-2.138747 0.862687,-3.558587 0.664989,-1.401867 2.120774,-2.480226 2.228609,-1.635512 5.068285,-1.635512 0.30554,0 0.91661,0.05392 l 0,6.128676 q -0.12581,-0.01797 -0.53918,-0.01797 -1.24011,0 -1.81524,0.682961 -0.539178,0.647016 -0.629041,2.336446 l -0.107836,2.012937 q -0.08986,1.61754 -0.682961,2.929544 -0.611071,1.329976 -1.725375,2.336445 -1.096333,0.988496 -2.552118,1.509703 -1.473758,0.521207 -3.10927,0.521207 -0.593097,0 -0.862687,-0.01797 z"
         style="font-style:normal;font-variant:normal;font-weight:normal;font-stretch:normal;font-size:medium;line-height:23.00500107px;font-family:'Pump Demi Bold LET';-inkscape-font-specification:'Pump Demi Bold LET';letter-spacing:0px;word-spacing:0px;fill:#000000;fill-opacity:1;stroke:none;stroke-width:0.92019999"
         id="path4503"
         inkscape:connector-curvature="0" />
      <path
         d="m 110.76922,86.382319 -6.00287,0 0,-13.803001 0,-1.186195 q 0,-1.401867 0.21567,-2.534145 0.17973,-1.078359 0.62905,-2.066856 0.3954,-0.898632 1.13227,-1.797265 0.68297,-0.88066 1.47376,-1.491731 0.86269,-0.629043 1.74335,-1.078359 0.84472,-0.413371 1.92307,-0.664989 1.00647,-0.215671 2.10281,-0.215671 2.4982,0 4.63694,1.22214 2.12078,1.222141 3.32494,3.342915 1.20417,2.120773 1.20417,4.654918 0,1.941047 -0.68296,3.630477 -0.71891,1.707402 -2.01294,2.947515 -1.32997,1.312004 -3.0194,1.976993 -1.72538,0.700933 -3.72034,0.700933 -0.89864,0 -1.85119,-0.233644 l 0,-6.164622 q 1.07836,0.413371 1.94105,0.413371 1.5097,0 2.46225,-0.898632 0.91661,-0.898633 0.91661,-2.318473 0,-0.988496 -0.3954,-1.725375 -0.41337,-0.736879 -1.1143,-1.168223 -0.73688,-0.413371 -1.65349,-0.413371 -0.89863,0 -1.65348,0.431344 -0.75485,0.449316 -1.13228,1.132277 -0.28756,0.53918 -0.35945,1.060387 -0.10784,0.557152 -0.10784,1.437812 l 0,0.80877 z"
         style="font-style:normal;font-variant:normal;font-weight:normal;font-stretch:normal;font-size:medium;line-height:23.00500107px;font-family:'Pump Demi Bold LET';-inkscape-font-specification:'Pump Demi Bold LET';letter-spacing:0px;word-spacing:0px;fill:#000000;fill-opacity:1;stroke:none;stroke-width:0.92019999"
         id="path4505"
         inkscape:connector-curvature="0" />
      <path
         d="m 143.29973,71.590822 0,8.051751 -6.02084,0 0,-7.260954 0,-0.826742 q 0,-1.707403 -0.43134,-2.480227 -0.41337,-0.754852 -1.13228,-1.15025 -0.73688,-0.413371 -1.59957,-0.413371 -1.34795,0 -2.3005,0.952551 -0.95255,0.988496 -0.95255,2.354418 0,1.365922 0.97053,2.282527 0.95255,0.934578 2.37239,0.934578 0.84471,0 1.97699,-0.413371 l 0,6.164622 q -1.04241,0.233644 -1.92307,0.233644 -2.53415,0 -4.70884,-1.22214 -2.19267,-1.222141 -3.41481,-3.324942 -1.24011,-2.102801 -1.24011,-4.636946 0,-2.516172 1.24011,-4.672891 1.22214,-2.138746 3.32495,-3.378859 2.08482,-1.240113 4.601,-1.240113 2.53414,0 4.65491,1.204168 2.1028,1.204168 3.36089,3.324941 1.22214,2.120774 1.22214,4.583028 z"
         style="font-style:normal;font-variant:normal;font-weight:normal;font-stretch:normal;font-size:medium;line-height:23.00500107px;font-family:'Pump Demi Bold LET';-inkscape-font-specification:'Pump Demi Bold LET';letter-spacing:0px;word-spacing:0px;fill:#000000;fill-opacity:1;stroke:none;stroke-width:0.92019999"
         id="path4507"
         inkscape:connector-curvature="0" />
      <path
         d="m 157.37232,73.06458 2.92955,5.283961 q -2.35442,1.653485 -5.33788,1.653485 -2.46226,0 -4.54708,-1.240114 -2.08483,-1.240113 -3.289,-3.360887 -1.24011,-2.138746 -1.24011,-4.618973 0,-2.534144 1.24011,-4.654918 1.20417,-2.120773 3.34291,-3.360887 2.13875,-1.22214 4.65492,-1.22214 2.80374,0 5.1941,1.653484 l -2.94752,5.283961 q -0.57512,-0.503234 -1.09633,-0.718906 -0.50323,-0.215672 -1.18619,-0.215672 -0.88066,0 -1.63552,0.431344 -0.77282,0.431344 -1.18619,1.168223 -0.43134,0.754851 -0.43134,1.635511 0,0.898633 0.44931,1.635512 0.43135,0.754852 1.1862,1.186196 0.75485,0.431343 1.63551,0.431343 0.66499,0 1.18619,-0.233644 0.57513,-0.251617 1.07836,-0.736879 z"
         style="font-style:normal;font-variant:normal;font-weight:normal;font-stretch:normal;font-size:medium;line-height:23.00500107px;font-family:'Pump Demi Bold LET';-inkscape-font-specification:'Pump Demi Bold LET';letter-spacing:0px;word-spacing:0px;fill:#000000;fill-opacity:1;stroke:none;stroke-width:0.92019999"
         id="path4509"
         inkscape:connector-curvature="0" />
      <path
         d="m 167.81444,72.273783 4.18762,-4.547082 q -0.70093,-0.341481 -1.40186,-0.341481 -0.86269,0 -1.59957,0.431344 -0.75485,0.467289 -1.16822,1.204168 -0.44932,0.772824 -0.44932,1.635512 0,0.772824 0.43135,1.617539 z m 8.26742,0.323508 1.45578,5.877059 q -2.76779,1.527676 -5.94895,1.527676 -2.91157,0 -5.19409,-1.204168 -1.1862,-0.629043 -2.08483,-1.455786 -0.89864,-0.844714 -1.56362,-1.905101 -1.32998,-2.138747 -1.32998,-4.726809 0,-2.516172 1.24011,-4.618973 1.20417,-2.084828 3.36089,-3.342914 2.13875,-1.222141 4.65492,-1.222141 2.44428,0 4.51114,1.132277 1.02444,0.557153 1.86915,1.365922 0.84472,0.80877 1.5097,1.887129 l -7.47662,8.087696 q 0.41337,0.107836 0.77282,0.107836 1.94105,0 4.22358,-1.509703 z"
         style="font-style:normal;font-variant:normal;font-weight:normal;font-stretch:normal;font-size:medium;line-height:23.00500107px;font-family:'Pump Demi Bold LET';-inkscape-font-specification:'Pump Demi Bold LET';letter-spacing:0px;word-spacing:0px;fill:#000000;fill-opacity:1;stroke:none;stroke-width:0.92019999"
         id="path4511"
         inkscape:connector-curvature="0" />
      <g
         id="text4510"
         style="font-style:normal;font-variant:normal;font-weight:normal;font-stretch:normal;font-size:4.55136395px;line-height:7.11150599px;font-family:'TT Corals Thin DEMO';-inkscape-font-specification:'TT Corals Thin DEMO';letter-spacing:0px;word-spacing:0px;fill:#000000;fill-opacity:1;stroke:#000000;stroke-width:0.14764449;stroke-miterlimit:4;stroke-dasharray:none"
         aria-label="inspire excellence">
        <path
           inkscape:connector-curvature="0"
           id="path3690"
           style="stroke:#000000;stroke-width:0.14764449;stroke-miterlimit:4;stroke-dasharray:none"
           d="m 137.88087,86.336807 0.091,0 0,-3.185955 -0.091,0 z" />
        <path
           inkscape:connector-curvature="0"
           id="path3692"
           style="stroke:#000000;stroke-width:0.14764449;stroke-miterlimit:4;stroke-dasharray:none"
           d="m 140.93135,86.336807 0.091,0 0,-3.185955 -0.091,0 0,2.958387 -0.0228,0 -1.8433,-2.958387 -0.091,0 0,3.185955 0.091,0 0,-2.958386 0.0228,0 z" />
        <path
           inkscape:connector-curvature="0"
           id="path3694"
           style="stroke:#000000;stroke-width:0.14764449;stroke-miterlimit:4;stroke-dasharray:none"
           d="m 143.6163,85.494805 c 0,-1.115084 -1.59298,-0.796489 -1.59298,-1.638491 0,-0.386866 0.27308,-0.659948 0.68271,-0.659948 0.5234,0 0.72821,0.455137 0.72821,0.455137 l 0.0683,-0.06827 c 0,0 -0.25032,-0.477893 -0.79648,-0.477893 -0.45514,0 -0.77374,0.318595 -0.77374,0.750975 0,0.93303 1.59298,0.614434 1.59298,1.638491 0,0.455136 -0.34135,0.796489 -0.81924,0.796489 -0.56893,0 -0.88752,-0.546164 -0.88752,-0.546164 l -0.0683,0.04551 c 0,0 0.31859,0.591677 0.95579,0.591677 0.5234,0 0.91027,-0.386866 0.91027,-0.887516 z" />
        <path
           inkscape:connector-curvature="0"
           id="path3696"
           style="stroke:#000000;stroke-width:0.14764449;stroke-miterlimit:4;stroke-dasharray:none"
           d="m 144.43234,86.336807 0.091,0 0,-1.0013 0.77373,0 c 0.70546,0 1.18336,-0.477893 1.18336,-1.115084 0,-0.637191 -0.4779,-1.115084 -1.22887,-1.115084 -0.52341,0 -0.81925,0.136541 -0.81925,0.136541 z m 1.95709,-2.116384 c 0,0.591677 -0.43238,1.024057 -1.09233,1.024057 l -0.77373,0 0,-1.93433 c 0,0 0.25033,-0.113784 0.72822,-0.113784 0.70546,0 1.13784,0.43238 1.13784,1.024057 z" />
        <path
           inkscape:connector-curvature="0"
           id="path3698"
           style="stroke:#000000;stroke-width:0.14764449;stroke-miterlimit:4;stroke-dasharray:none"
           d="m 147.30361,86.336807 0.091,0 0,-3.185955 -0.091,0 z" />
        <path
           inkscape:connector-curvature="0"
           id="path3700"
           style="stroke:#000000;stroke-width:0.14764449;stroke-miterlimit:4;stroke-dasharray:none"
           d="m 150.37685,86.336807 0.11379,0 -0.77374,-1.160598 0,-0.02276 c 0,0 0.77374,-0.204812 0.77374,-1.0013 0,-0.591678 -0.45514,-1.046814 -1.1606,-1.046814 -0.61444,0 -0.93303,0.136541 -0.93303,0.136541 l 0,3.094927 0.091,0 0,-1.137841 1.13784,0 z m 0.0228,-2.184654 c 0,0.523406 -0.40962,0.955786 -1.02406,0.955786 l -0.88751,0 0,-1.797789 c 0,0 0.27308,-0.113784 0.842,-0.113784 0.65995,0 1.06957,0.409623 1.06957,0.955787 z" />
        <path
           inkscape:connector-curvature="0"
           id="path3702"
           style="stroke:#000000;stroke-width:0.14764449;stroke-miterlimit:4;stroke-dasharray:none"
           d="m 151.31273,86.336807 1.63849,0 0,-0.09103 -1.54747,0 0,-2.0026 1.27438,0 0,-0.09103 -1.27438,0 0,-0.910267 1.45644,0 0,-0.09103 -1.54746,0 z" />
        <path
           inkscape:connector-curvature="0"
           id="path3704"
           style="stroke:#000000;stroke-width:0.14764449;stroke-miterlimit:4;stroke-dasharray:none"
           d="m 154.36178,86.336807 1.63849,0 0,-0.09103 -1.54746,0 0,-2.0026 1.27438,0 0,-0.09103 -1.27438,0 0,-0.910267 1.45644,0 0,-0.09103 -1.54747,0 z" />
        <path
           inkscape:connector-curvature="0"
           id="path3706"
           style="stroke:#000000;stroke-width:0.14764449;stroke-miterlimit:4;stroke-dasharray:none"
           d="m 158.41143,83.150852 -0.11378,0 -0.86476,1.43368 -0.86476,-1.43368 -0.11379,0 0.93303,1.524707 -1.02405,1.661248 0.11378,0 0.95579,-1.57022 0.95578,1.57022 0.11379,0 -1.02406,-1.661248 z" />
        <path
           inkscape:connector-curvature="0"
           id="path3708"
           style="stroke:#000000;stroke-width:0.14764449;stroke-miterlimit:4;stroke-dasharray:none"
           d="m 161.12305,85.74513 c 0,0 -0.3186,0.546164 -0.88752,0.546164 -0.56892,0 -1.13784,-0.568921 -1.13784,-1.547464 0,-0.978543 0.56892,-1.547464 1.13784,-1.547464 0.52341,0 0.81925,0.455137 0.81925,0.455137 l 0.0683,-0.06827 c 0,0 -0.34135,-0.477893 -0.88752,-0.477893 -0.61443,0 -1.22887,0.614434 -1.22887,1.638491 0,1.024057 0.61444,1.638491 1.22887,1.638491 0.63719,0 0.95579,-0.591677 0.95579,-0.591677 z" />
        <path
           inkscape:connector-curvature="0"
           id="path3710"
           style="stroke:#000000;stroke-width:0.14764449;stroke-miterlimit:4;stroke-dasharray:none"
           d="m 161.87331,86.336807 1.63849,0 0,-0.09103 -1.54746,0 0,-2.0026 1.27438,0 0,-0.09103 -1.27438,0 0,-0.910267 1.45644,0 0,-0.09103 -1.54747,0 z" />
        <path
           inkscape:connector-curvature="0"
           id="path3712"
           style="stroke:#000000;stroke-width:0.14764449;stroke-miterlimit:4;stroke-dasharray:none"
           d="m 164.19344,86.336807 1.59298,0 0,-0.09103 -1.50195,0 0,-3.094928 -0.091,0 z" />
        <path
           inkscape:connector-curvature="0"
           id="path3714"
           style="stroke:#000000;stroke-width:0.14764449;stroke-miterlimit:4;stroke-dasharray:none"
           d="m 166.46912,86.336807 1.59298,0 0,-0.09103 -1.50195,0 0,-3.094928 -0.091,0 z" />
        <path
           inkscape:connector-curvature="0"
           id="path3716"
           style="stroke:#000000;stroke-width:0.14764449;stroke-miterlimit:4;stroke-dasharray:none"
           d="m 168.74481,86.336807 1.63849,0 0,-0.09103 -1.54747,0 0,-2.0026 1.27439,0 0,-0.09103 -1.27439,0 0,-0.910267 1.45644,0 0,-0.09103 -1.54746,0 z" />
        <path
           inkscape:connector-curvature="0"
           id="path3718"
           style="stroke:#000000;stroke-width:0.14764449;stroke-miterlimit:4;stroke-dasharray:none"
           d="m 173.02202,86.336807 0.091,0 0,-3.185955 -0.091,0 0,2.958387 -0.0228,0 -1.8433,-2.958387 -0.091,0 0,3.185955 0.091,0 0,-2.958386 0.0228,0 z" />
        <path
           inkscape:connector-curvature="0"
           id="path3720"
           style="stroke:#000000;stroke-width:0.14764449;stroke-miterlimit:4;stroke-dasharray:none"
           d="m 176.04832,85.74513 c 0,0 -0.31859,0.546164 -0.88751,0.546164 -0.56892,0 -1.13784,-0.568921 -1.13784,-1.547464 0,-0.978543 0.56892,-1.547464 1.13784,-1.547464 0.5234,0 0.81924,0.455137 0.81924,0.455137 l 0.0683,-0.06827 c 0,0 -0.34135,-0.477893 -0.88751,-0.477893 -0.61444,0 -1.22887,0.614434 -1.22887,1.638491 0,1.024057 0.61443,1.638491 1.22887,1.638491 0.63719,0 0.95578,-0.591677 0.95578,-0.591677 z" />
        <path
           inkscape:connector-curvature="0"
           id="path3722"
           style="stroke:#000000;stroke-width:0.14764449;stroke-miterlimit:4;stroke-dasharray:none"
           d="m 176.79859,86.336807 1.63849,0 0,-0.09103 -1.54747,0 0,-2.0026 1.27438,0 0,-0.09103 -1.27438,0 0,-0.910267 1.45644,0 0,-0.09103 -1.54746,0 z" />
      </g>
    </g>
  </g>
</svg>
